<?xml version="1.0" standalone="no"?><!DOCTYPE svg PUBLIC "-//W3C//DTD SVG 1.1//EN" "http://www.w3.org/Graphics/SVG/1.1/DTD/svg11.dtd"><svg class="icon" width="200px" height="191.22px" viewBox="0 0 1071 1024" version="1.1" xmlns="http://www.w3.org/2000/svg"><path d="M535.203166 548.19577m-67.441692 0a67.441692 67.441692 0 1 0 134.883383 0 67.441692 67.441692 0 1 0-134.883383 0Z" fill="#FBB4A5" /><path d="M595.838815 59.398187c37.742598 31.555287 63.110574 91.572205 63.110574 155.920242 0 88.47855-92.190937 167.057402-123.746223 179.432024-31.555287-12.993353-123.746224-90.953474-123.746224-179.432024 0-64.348036 25.367976-124.364955 63.110574-155.920242l17.324471 32.79275c8.662236 15.468278 24.749245 25.367976 42.692447 25.367975s34.648943-9.899698 42.692448-25.367975L594.601353 59.398187M577.276882 0L538.915552 71.154079s-3.093656 3.093656-4.949849 3.093655-3.712387-1.237462-4.949849-3.093655L490.654525 0c-71.154079 25.986707-123.746224 111.990332-123.746224 215.318429 0 123.746224 133.645921 223.980665 167.057402 223.980665s167.057402-100.234441 167.057402-223.980665c0-103.328097-52.592145-189.950453-123.746223-215.318429zM181.907697 315.55287c24.749245 0 50.117221 4.331118 74.866466 12.374622 84.147432 27.224169 129.933535 139.214502 132.408459 173.244713-17.324471 20.418127-90.334743 68.679154-164.582478 68.679155-16.087009 0-30.936556-2.474924-44.54864-6.806043-61.254381-19.799396-110.134139-62.491843-128.696073-108.277945l36.505136-6.806043a48.756012 48.756012 0 0 0 26.605438-81.672507l-25.367975-26.605438c24.749245-15.468278 56.923263-24.130514 92.809667-24.130514m0-43.311178c-64.966767 0-122.508761 24.130514-154.682779 65.585498l55.6858 58.779457c3.093656 3.093656 1.237462 8.043505-3.093655 9.280966l-79.816314 14.849547c2.474924 75.485196 68.060423 152.207855 166.43867 184.381873 19.180665 6.187311 38.361329 8.662236 58.160725 8.662236 100.853172 0 197.993958-71.77281 206.656194-98.378248 10.518429-31.555287-43.929909-189.950453-161.488822-228.311782-29.699094-9.899698-60.016918-14.230816-88.47855-14.230816zM417.025522 670.085801c14.230816 0 23.511782 1.237462 28.461631 2.474924 17.943202 29.080363 46.404834 146.639275-5.56858 217.793354-37.742598 52.592145-92.190937 86.003625-142.926888 89.097281l4.949849-36.505136a47.951662 47.951662 0 0 0-11.755891-38.36133 49.374743 49.374743 0 0 0-36.505136-16.70574h-12.374622l-8.662236 4.949849-33.41148 16.087009c-12.374622-48.261027 2.474924-111.371601 40.217522-163.345015 37.742598-51.973414 116.32145-74.866465 177.575831-74.866465m0-43.311179c-63.110574 0-161.488822 22.27432-212.224773 92.809668-60.63565 83.528701-68.679154 184.381873-26.605438 246.873716l73.010271-35.267674h2.474925c3.093656 0 5.56858 2.474924 5.56858 6.187312l-10.518429 80.435045c12.993353 3.712387 26.605438 5.56858 40.836254 5.56858 64.348036 0 136.120846-38.361329 186.238066-107.040483 73.010272-100.234441 23.511782-259.867069-3.712386-279.666466-8.043505-5.56858-27.8429-9.899698-54.448339-9.899698zM653.99954 670.085801c61.254381 0 139.833233 22.893051 177.575831 74.866465 37.742598 51.973414 52.592145 115.083988 40.217523 163.345015l-33.411481-16.087009-11.13716-4.949849h-9.899698c-14.230816 0-27.224169 6.187311-36.505136 16.70574-9.280967 10.518429-13.612085 24.749245-11.755891 38.361329l4.949849 36.505136c-50.735952-3.093656-105.18429-36.505136-142.926888-89.097281-51.973414-71.77281-23.511782-188.712991-5.56858-217.793353 4.949849-1.237462 14.230816-2.474924 28.461631-2.474925m0-43.311178c-26.605438 0-46.404834 3.712387-54.448338 9.899698-27.224169 19.799396-76.103927 179.432024-3.712387 279.666465 50.117221 68.679154 121.89003 107.040483 186.238067 107.040484 14.230816 0 27.8429-1.856193 40.836253-5.56858l-10.518429-80.435046c0-3.712387 2.474924-6.187311 5.56858-6.187311h2.474925l73.010272 35.267674c42.692447-62.491843 34.030211-163.345015-26.605438-246.873716-51.354683-70.535347-149.732931-92.809668-212.224774-92.809668zM889.117365 315.55287c35.886405 0 68.060423 8.662236 92.809668 24.130514l-25.367976 26.605438a48.879758 48.879758 0 0 0 26.605438 81.672507l36.505136 6.806043c-18.561934 45.786103-67.441692 88.47855-128.696073 108.277945-13.612085 4.331118-28.461631 6.806042-44.54864 6.806043-74.247734 0-147.258006-48.261027-164.582478-68.679155 2.474924-34.030211 48.261027-146.020544 132.40846-173.244713 24.749245-8.043505 50.117221-12.374622 74.866465-12.374622m0-43.311178c-28.461631 0-58.779456 4.331118-88.47855 14.230816-117.558912 38.361329-172.007251 196.137764-161.488822 228.311782 8.662236 26.605438 106.421752 98.378248 206.656194 98.378248 19.180665 0 38.98006-2.474924 58.160725-8.662236 98.378248-32.174018 163.963746-108.896677 166.43867-184.381873L990.589268 405.268882c-4.331118-0.618731-6.187311-6.187311-3.093655-9.280967l55.6858-58.779456c-32.174018-41.454985-89.716012-65.585498-154.682779-65.585498z" fill="#FBB4A5" /></svg>